<?xml version="1.0" encoding="iso-8859-1"?>
<!-- Generator: Adobe Illustrator 19.0.0, SVG Export Plug-In . SVG Version: 6.00 Build 0)  -->
<svg version="1.1" id="Layer_1" xmlns="http://www.w3.org/2000/svg" xmlns:xlink="http://www.w3.org/1999/xlink" x="0px" y="0px"
	 viewBox="0 0 512 512" style="enable-background:new 0 0 512 512;" xml:space="preserve">
<g>
	<g>
		<circle cx="143.957" cy="104.504" r="31.99"/>
	</g>
</g>
<g>
	<g>
		<path d="M510.595,408.366l-35.352-79.377c-17.333-133.45-0.985-8.013-21.94-167.008c-1.54-11.686-12.335-19.965-24.019-18.425
			l-37.846,4.987c-11.557,1.523-19.979,12.232-18.425,24.019l4.867,36.927l4.558-1.066l24.462-34.851l-17.069,45.79l-51.498,12.042
			c-3.584,0.838-6.862,2.93-9.16,6.319c-5.149,0-139.352,0-144.924,0c-1.33-1.314-2.963-2.36-4.372-2.975
			c-5.096-2.226-41.386-18.075-45.945-20.065l-9.584-54.284l19.692,42.946l9.688-25.374c4.258-11.152-1.343-23.645-12.494-27.903
			c-21.371-8.16-34.282-12.411-40.783-14.408c-3.336-1.025-6.849-1.304-10.305-0.825l-59.018,8.192
			c-9.965,1.418-15.475,12.33-10.737,21.184l29.802,55.717l-12.406,31.457c-0.504,1.278-0.892,2.6-1.16,3.947L21.34,332.418
			L0.558,411.536c-2.37,9.018,3.021,18.249,12.039,20.617c9.024,2.368,18.25-3.026,20.617-12.039l20.913-79.616
			c0.339-1.469-0.911,4.753,15.125-76.099l1.856,0.71l40.41,63.467v93.552c0,9.091,6.985,16.913,16.066,17.34
			c9.695,0.457,17.7-7.269,17.7-16.863v-98.947c0-3.212-0.917-6.358-2.642-9.067l-25.678-40.329l6.601-17.289l-13.925-6.082
			c-12.27-5.359-17.167-17.624-16.795-24.29l3.31-59.166l10.583,59.943c0.843,4.772,4.015,8.815,8.472,10.762l53.066,23.175
			c7.168,3.131,15.475,0.003,18.844-6.986c16.353,0,127.305,0,141.687,0c3.418,5.534,10.067,8.355,16.488,6.854
			c0.001,0,0.002,0,0.003-0.001c14.108-3.3,47.884-11.197,59.48-13.909c4.986-1.166,9.056-4.75,10.845-9.548l18.849-50.565
			l-6.611,52.117c-0.747,5.887-7.355,16.985-20.274,20.006l-22.449,5.249l1.903,14.438l-13.487,41.486
			c-0.611,1.878-0.872,3.853-0.771,5.825l4.669,91.747c0.453,8.901,8.024,15.796,16.991,15.347
			c8.929-0.455,15.8-8.062,15.345-16.991l-4.516-88.759l16.486-50.711l13.838-1.824l7.846,60.412
			c0.203,1.554,0.628,3.07,1.266,4.502l36.314,81.536c3.638,8.171,13.211,11.84,21.377,8.203
			C510.561,426.103,514.233,416.533,510.595,408.366z M63.885,184.07l-8.164-15.264l14.797-2.106L63.885,184.07z"/>
	</g>
</g>
<g>
	<g>
		<circle cx="404.81" cy="105.245" r="31.687"/>
	</g>
</g>
<g>
</g>
<g>
</g>
<g>
</g>
<g>
</g>
<g>
</g>
<g>
</g>
<g>
</g>
<g>
</g>
<g>
</g>
<g>
</g>
<g>
</g>
<g>
</g>
<g>
</g>
<g>
</g>
<g>
</g>
</svg>
