<?xml version="1.0" encoding="iso-8859-1"?>
<!-- Generator: Adobe Illustrator 19.0.0, SVG Export Plug-In . SVG Version: 6.00 Build 0)  -->
<svg version="1.1" id="Capa_1" xmlns="http://www.w3.org/2000/svg" xmlns:xlink="http://www.w3.org/1999/xlink" x="0px" y="0px"
	 viewBox="0 0 512 512" style="enable-background:new 0 0 512 512;" xml:space="preserve">
<g>
	<g>
		<path d="M497,201h-42.44c-4.484-16.254-10.936-31.821-19.274-46.505l30.017-30.017c5.858-5.858,5.858-15.355,0-21.213
			l-56.568-56.569c-5.858-5.858-15.356-5.856-21.213,0l-30.018,30.017c-14.684-8.337-30.251-14.79-46.505-19.275V15
			c0-8.284-6.716-15-15-15h-80c-8.284,0-15,6.716-15,15v42.438c-16.254,4.485-31.821,10.938-46.505,19.275l-30.018-30.017
			c-5.858-5.858-15.356-5.858-21.213,0l-56.568,56.569c-5.858,5.858-5.858,15.355,0,21.213l30.017,30.017
			c-8.337,14.684-14.79,30.251-19.274,46.505H15c-8.284,0-15,6.716-15,15v80c0,8.284,6.716,15,15,15h42.439
			c4.484,16.254,10.936,31.821,19.274,46.505l-30.017,30.017c-5.858,5.858-5.858,15.355,0,21.213l56.568,56.569
			c5.858,5.858,15.356,5.856,21.213,0l30.018-30.017c14.684,8.337,30.251,14.79,46.505,19.275V497c0,8.284,6.716,15,15,15h80
			c8.284,0,15-6.716,15.001-15v-42.438c16.254-4.485,31.821-10.938,46.505-19.275l30.018,30.017c5.858,5.858,15.356,5.858,21.213,0
			l56.568-56.569c5.858-5.858,5.858-15.355,0-21.213l-30.017-30.017c8.337-14.684,14.79-30.251,19.274-46.505H497
			c8.284,0,15-6.716,15-15v-80C512,207.716,505.284,201,497,201z M482,281.001h-39.209c-7.08,0-13.195,4.95-14.671,11.874
			c-4.466,20.96-12.659,40.727-24.349,58.751c-3.851,5.939-3.027,13.764,1.979,18.769l27.734,27.734l-35.355,35.356l-27.735-27.735
			c-5.006-5.005-12.832-5.83-18.769-1.978c-18.024,11.691-37.791,19.883-58.751,24.35c-6.925,1.475-11.874,7.59-11.874,14.67V482
			h-50v-39.209c0-7.079-4.949-13.194-11.874-14.67c-20.96-4.467-40.727-12.66-58.751-24.35c-5.94-3.853-13.764-3.028-18.769,1.978
			l-27.735,27.735l-35.355-35.356l27.734-27.734c5.006-5.005,5.831-12.83,1.979-18.769c-11.691-18.024-19.883-37.791-24.349-58.751
			C82.404,285.95,76.289,281,69.209,281H30v-50h39.209c7.08,0,13.195-4.95,14.671-11.875c4.466-20.96,12.659-40.727,24.349-58.751
			c3.851-5.939,3.027-13.764-1.979-18.769l-27.734-27.734l35.355-35.356l27.735,27.735c5.006,5.004,12.831,5.828,18.769,1.978
			c18.024-11.691,37.791-19.883,58.751-24.35c6.925-1.475,11.874-7.59,11.874-14.67V30h50v39.208c0,7.08,4.949,13.195,11.874,14.672
			c20.96,4.467,40.727,12.66,58.751,24.35c5.939,3.851,13.763,3.027,18.769-1.978l27.735-27.735l35.355,35.356l-27.734,27.734
			c-5.006,5.005-5.831,12.83-1.979,18.769c11.691,18.024,19.883,37.791,24.349,58.751c1.476,6.924,7.591,11.874,14.671,11.874H482
			V281.001z"/>
	</g>
</g>
<g>
	<g>
		<path d="M256,141c-63.411,0-115,51.589-115,115s51.589,115,115,115s115-51.589,115-115S319.411,141,256,141z M256,341
			c-46.869,0-85-38.131-85-85s38.131-85,85-85s85,38.131,85,85C341,302.869,302.869,341,256,341z"/>
	</g>
</g>
<g>
</g>
<g>
</g>
<g>
</g>
<g>
</g>
<g>
</g>
<g>
</g>
<g>
</g>
<g>
</g>
<g>
</g>
<g>
</g>
<g>
</g>
<g>
</g>
<g>
</g>
<g>
</g>
<g>
</g>
</svg>
