<?xml version="1.0" encoding="iso-8859-1"?>
<!-- Generator: Adobe Illustrator 19.0.0, SVG Export Plug-In . SVG Version: 6.00 Build 0)  -->
<svg version="1.1" id="Capa_1" xmlns="http://www.w3.org/2000/svg" xmlns:xlink="http://www.w3.org/1999/xlink" x="0px" y="0px"
	 viewBox="0 0 512 512" style="enable-background:new 0 0 512 512;" xml:space="preserve">
<g>
	<g>
		<path d="M256,0C114.842,0,0,114.842,0,256s114.842,256,256,256s256-114.842,256-256S397.158,0,256,0z M256,471.472
			c-118.814,0-215.472-96.665-215.472-215.472S137.186,40.528,256,40.528c118.807,0,215.472,96.672,215.472,215.479
			S374.807,471.472,256,471.472z"/>
	</g>
</g>
<g>
	<g>
		<path d="M256,301.425c-71.997,0-139.361,36.103-189.67,101.65l32.152,24.668c42.466-55.32,98.408-85.79,157.518-85.79
			s115.051,30.47,157.511,85.79l32.152-24.668C395.354,337.528,327.997,301.425,256,301.425z"/>
	</g>
</g>
<g>
	<g>
		<path d="M256,91.863c-58.103,0-105.372,47.573-105.372,106.047S197.897,303.958,256,303.958s105.372-47.573,105.372-106.047
			S314.103,91.863,256,91.863z M256,263.43c-35.752,0-64.844-29.389-64.844-65.52s29.092-65.52,64.844-65.52
			s64.844,29.396,64.844,65.52S291.752,263.43,256,263.43z"/>
	</g>
</g>
<g>
</g>
<g>
</g>
<g>
</g>
<g>
</g>
<g>
</g>
<g>
</g>
<g>
</g>
<g>
</g>
<g>
</g>
<g>
</g>
<g>
</g>
<g>
</g>
<g>
</g>
<g>
</g>
<g>
</g>
</svg>
